<?xml version="1.0" encoding="UTF-8" standalone="no"?>
<svg
   sodipodi:docname="BBFC_12_2019.svg"
   inkscape:version="1.4 (e7c3feb100, 2024-10-09)"
   id="svg508"
   version="1.1"
   viewBox="0 0 92.604164 92.604166"
   height="92.604164mm"
   width="92.604164mm"
   xmlns:inkscape="http://www.inkscape.org/namespaces/inkscape"
   xmlns:sodipodi="http://sodipodi.sourceforge.net/DTD/sodipodi-0.dtd"
   xmlns="http://www.w3.org/2000/svg"
   xmlns:svg="http://www.w3.org/2000/svg"
   xmlns:rdf="http://www.w3.org/1999/02/22-rdf-syntax-ns#"
   xmlns:cc="http://creativecommons.org/ns#"
   xmlns:dc="http://purl.org/dc/elements/1.1/">
  <defs
     id="defs502" />
  <sodipodi:namedview
     inkscape:window-maximized="1"
     inkscape:window-y="0"
     inkscape:window-x="0"
     inkscape:window-height="730"
     inkscape:window-width="1280"
     showgrid="false"
     inkscape:document-rotation="0"
     inkscape:current-layer="svg508"
     inkscape:document-units="mm"
     inkscape:cy="139.01022"
     inkscape:cx="122.50276"
     inkscape:zoom="0.57549725"
     inkscape:pageshadow="2"
     inkscape:pageopacity="0.0"
     borderopacity="1.0"
     bordercolor="#666666"
     pagecolor="#ffffff"
     id="base"
     inkscape:showpageshadow="2"
     inkscape:pagecheckerboard="0"
     inkscape:deskcolor="#d1d1d1" />
  <metadata
     id="metadata505">
    <rdf:RDF>
      <cc:Work
         rdf:about="">
        <dc:format>image/svg+xml</dc:format>
        <dc:type
           rdf:resource="http://purl.org/dc/dcmitype/StillImage" />
        <dc:title />
      </cc:Work>
    </rdf:RDF>
  </metadata>
  <path
     style="fill:#000000;fill-opacity:1;fill-rule:nonzero;stroke:none;stroke-width:1.65422"
     d="m 46.298856,90.98225 c -24.671174,0 -44.67693,-20.00576 -44.67693,-44.6834 0,-24.67118 20.005756,-44.67694 44.67693,-44.67694 24.67765,0 44.6834,20.00576 44.6834,44.67694 0,24.67764 -20.00575,44.6834 -44.6834,44.6834 M 46.298856,0 C 20.729488,0 -0.006441,20.72948 -0.006441,46.29885 c 0,25.57583 20.735929,46.30531 46.305297,46.30531 25.57584,0 46.30532,-20.72948 46.30532,-46.30531 C 92.604176,20.72948 71.874696,0 46.298856,0"
     id="path197"
     inkscape:connector-curvature="0" />
  <path
     style="fill:#ffffff;fill-opacity:1;fill-rule:nonzero;stroke:none;stroke-width:1.65422"
     d="m 46.298846,86.91777 c -22.428925,0 -40.612455,-18.18353 -40.612455,-40.61246 0,-22.43539 18.18353,-40.61892 40.612455,-40.61892 22.4354,0 40.61893,18.18353 40.61893,40.61892 0,22.42893 -18.18353,40.61246 -40.61893,40.61246 m 0,-85.29586 c -24.671174,0 -44.67693,20.00576 -44.67693,44.6834 0,24.67118 20.005756,44.67694 44.67693,44.67694 24.67765,0 44.6834,-20.00576 44.6834,-44.67694 0,-24.67764 -20.00575,-44.6834 -44.6834,-44.6834"
     id="path201"
     inkscape:connector-curvature="0" />
  <path
     style="fill:#ff7d13;fill-opacity:1;fill-rule:nonzero;stroke:none;stroke-width:1.65422"
     d="m 46.298846,5.68639 c -22.428925,0 -40.612455,18.18353 -40.612455,40.61246 0,22.43539 18.18353,40.61892 40.612455,40.61892 22.4354,0 40.61893,-18.18353 40.61893,-40.61892 0,-22.42893 -18.18353,-40.61246 -40.61893,-40.61246"
     id="path203"
     inkscape:connector-curvature="0" />
  <path
     style="fill:#ffffff;fill-opacity:1;fill-rule:nonzero;stroke:none;stroke-width:1.65422"
     d="M 37.252316,29.54339 V 62.03982 H 31.333311 V 43.45565 c 0,-3.08228 0,-3.99339 -2.649337,-3.99339 h -5.298691 v -3.70908 h 0.626802 c 3.037037,-0.0516 7.127367,-0.0969 8.432648,-6.20979 z m 0,0"
     id="path205"
     inkscape:connector-curvature="0" />
  <path
     style="fill:#ffffff;fill-opacity:1;fill-rule:nonzero;stroke:none;stroke-width:1.65422"
     d="m 64.695626,57.03837 v 5.00792 H 42.589786 V 57.3744 c 4.14201,-2.8432 8.23879,-6.74614 10.16442,-8.71698 1.777,-1.82869 4.76234,-4.95622 4.76234,-9.24686 0,-2.50072 -1.24712,-4.85928 -4.28417,-4.85928 -4.76881,0 -4.6202,5.19531 -4.57497,7.50862 l -6.06762,-0.52986 c 0,-4.57495 1.49267,-7.50862 2.74626,-9.00129 1.78346,-2.07425 4.86574,-3.51522 8.38097,-3.51522 6.15809,0 10.44873,3.99339 10.44873,10.15795 0,5.247 -3.22443,9.00775 -6.79135,12.2322 -0.72372,0.6268 -5.05313,4.28419 -6.8883,5.63469 z m 0,0"
     id="path207"
     inkscape:connector-curvature="0" />
</svg>
