<?xml version="1.0" encoding="UTF-8" standalone="no"?>
<svg
   sodipodi:docname="BBFC_12A_2019.svg"
   inkscape:version="1.4 (e7c3feb100, 2024-10-09)"
   id="svg508"
   version="1.1"
   viewBox="0 0 92.604164 92.597719"
   height="92.597717mm"
   width="92.604164mm"
   xmlns:inkscape="http://www.inkscape.org/namespaces/inkscape"
   xmlns:sodipodi="http://sodipodi.sourceforge.net/DTD/sodipodi-0.dtd"
   xmlns="http://www.w3.org/2000/svg"
   xmlns:svg="http://www.w3.org/2000/svg"
   xmlns:rdf="http://www.w3.org/1999/02/22-rdf-syntax-ns#"
   xmlns:cc="http://creativecommons.org/ns#"
   xmlns:dc="http://purl.org/dc/elements/1.1/">
  <defs
     id="defs502" />
  <sodipodi:namedview
     inkscape:window-maximized="1"
     inkscape:window-y="0"
     inkscape:window-x="0"
     inkscape:window-height="730"
     inkscape:window-width="1280"
     showgrid="false"
     inkscape:document-rotation="0"
     inkscape:current-layer="svg508"
     inkscape:document-units="mm"
     inkscape:cy="139.01022"
     inkscape:cx="124.24039"
     inkscape:zoom="0.57549725"
     inkscape:pageshadow="2"
     inkscape:pageopacity="0.0"
     borderopacity="1.0"
     bordercolor="#666666"
     pagecolor="#ffffff"
     id="base"
     inkscape:showpageshadow="2"
     inkscape:pagecheckerboard="0"
     inkscape:deskcolor="#d1d1d1" />
  <metadata
     id="metadata505">
    <rdf:RDF>
      <cc:Work
         rdf:about="">
        <dc:format>image/svg+xml</dc:format>
        <dc:type
           rdf:resource="http://purl.org/dc/dcmitype/StillImage" />
        <dc:title />
      </cc:Work>
    </rdf:RDF>
  </metadata>
  <path
     style="fill:#000000;fill-opacity:1;fill-rule:nonzero;stroke:none;stroke-width:1.65411"
     d="m 46.302078,90.97592 c -24.675923,0 -44.673834,-20.00437 -44.673834,-44.68029 0,-24.66946 19.997911,-44.67382 44.673834,-44.67382 24.67593,0 44.68029,20.00436 44.68029,44.67382 0,24.67592 -20.00436,44.68029 -44.68029,44.68029 M 46.302078,0 C 20.728024,0 -10e-6,20.72804 -10e-6,46.29563 c 0,25.57406 20.728034,46.30209 46.302088,46.30209 25.57404,0 46.30208,-20.72803 46.30208,-46.30209 C 92.604158,20.72804 71.876118,0 46.302078,0"
     id="path233"
     inkscape:connector-curvature="0" />
  <path
     style="fill:#ffffff;fill-opacity:1;fill-rule:nonzero;stroke:none;stroke-width:1.65411"
     d="m 46.302088,86.91173 c -22.43383,0 -40.616094,-18.18227 -40.616094,-40.60963 0,-22.43384 18.182264,-40.6161 40.616094,-40.6161 22.43384,0 40.61608,18.18226 40.61608,40.6161 0,22.42736 -18.18224,40.60963 -40.61608,40.60963 m 0,-85.28992 c -24.675923,0 -44.673834,20.00436 -44.673834,44.68029 0,24.66945 19.997911,44.67382 44.673834,44.67382 24.67593,0 44.68029,-20.00437 44.68029,-44.67382 0,-24.67593 -20.00436,-44.68029 -44.68029,-44.68029"
     id="path237"
     inkscape:connector-curvature="0" />
  <path
     style="fill:#ff7d13;fill-opacity:1;fill-rule:nonzero;stroke:none;stroke-width:1.65411"
     d="m 46.302088,5.686 c -22.43383,0 -40.616094,18.18226 -40.616094,40.60963 0,22.43383 18.182264,40.6161 40.616094,40.6161 22.43384,0 40.61608,-18.18227 40.61608,-40.6161 0,-22.42737 -18.18224,-40.60963 -40.61608,-40.60963"
     id="path239"
     inkscape:connector-curvature="0" />
  <path
     style="fill:#ffffff;fill-opacity:1;fill-rule:nonzero;stroke:none;stroke-width:1.65411"
     d="M 23.325496,29.54134 V 62.0355 H 17.406901 V 43.45263 c 0,-3.08206 0,-3.99311 -2.65562,-3.99311 H 9.459427 v -3.70883 h 0.626758 c 3.030374,-0.0516 7.126871,-0.0969 8.42561,-6.20935 z m 0,0"
     id="path241"
     inkscape:connector-curvature="0" />
  <path
     style="fill:#ffffff;fill-opacity:1;fill-rule:nonzero;stroke:none;stroke-width:1.65411"
     d="m 50.760428,57.03441 v 5.00756 H 28.662573 v -4.67156 c 4.141736,-2.843 8.231785,-6.7392 10.157265,-8.71637 1.78332,-1.82857 4.76847,-4.96232 4.76847,-9.24621 0,-2.50055 -1.25349,-4.85894 -4.28387,-4.85894 -4.768477,0 -4.626339,5.19493 -4.574648,7.50809 l -6.067217,-0.52983 c 0,-4.57463 1.492584,-7.50809 2.746083,-9.00713 1.776875,-2.06763 4.858942,-3.50851 8.373922,-3.50851 6.16413,0 10.44802,3.99312 10.44802,10.15725 0,5.24663 -3.22422,9.00067 -6.78444,12.23135 -0.72367,0.62675 -5.05924,4.28389 -6.8878,5.6343 z m 0,0"
     id="path243"
     inkscape:connector-curvature="0" />
  <path
     style="fill:#ffffff;fill-opacity:1;fill-rule:nonzero;stroke:none;stroke-width:1.65411"
     d="m 73.226558,55.70983 h -12.15382 l -1.88024,6.33214 h -6.46782 l 10.91969,-32.37141 h 6.87488 l 11.04893,32.37141 h -6.46783 z m -1.60888,-5.27246 -4.44541,-14.89989 -4.49064,14.89989 z m 0,0"
     id="path245"
     inkscape:connector-curvature="0" />
</svg>
