<?xml version="1.0" encoding="UTF-8" standalone="no"?>
<svg
   sodipodi:docname="BBFC_15_2019.svg"
   inkscape:version="1.4 (e7c3feb100, 2024-10-09)"
   id="svg8"
   version="1.1"
   viewBox="0 0 92.604164 92.597717"
   height="92.597717mm"
   width="92.604164mm"
   xmlns:inkscape="http://www.inkscape.org/namespaces/inkscape"
   xmlns:sodipodi="http://sodipodi.sourceforge.net/DTD/sodipodi-0.dtd"
   xmlns="http://www.w3.org/2000/svg"
   xmlns:svg="http://www.w3.org/2000/svg"
   xmlns:rdf="http://www.w3.org/1999/02/22-rdf-syntax-ns#"
   xmlns:cc="http://creativecommons.org/ns#"
   xmlns:dc="http://purl.org/dc/elements/1.1/">
  <defs
     id="defs2" />
  <sodipodi:namedview
     inkscape:window-maximized="1"
     inkscape:window-y="0"
     inkscape:window-x="0"
     inkscape:window-height="730"
     inkscape:window-width="1280"
     showgrid="false"
     inkscape:document-rotation="0"
     inkscape:current-layer="svg8"
     inkscape:document-units="mm"
     inkscape:cy="154.28571"
     inkscape:cx="217.14286"
     inkscape:zoom="0.35"
     inkscape:pageshadow="2"
     inkscape:pageopacity="0.0"
     borderopacity="1.0"
     bordercolor="#666666"
     pagecolor="#ffffff"
     id="base"
     inkscape:showpageshadow="2"
     inkscape:pagecheckerboard="0"
     inkscape:deskcolor="#d1d1d1" />
  <metadata
     id="metadata5">
    <rdf:RDF>
      <cc:Work
         rdf:about="">
        <dc:format>image/svg+xml</dc:format>
        <dc:type
           rdf:resource="http://purl.org/dc/dcmitype/StillImage" />
        <dc:title />
      </cc:Work>
    </rdf:RDF>
  </metadata>
  <path
     inkscape:connector-curvature="0"
     id="path209"
     d="m 46.302081,90.97592 c -24.675926,0 -44.680288,-20.00437 -44.680288,-44.68029 0,-24.66946 20.004362,-44.67382 44.680288,-44.67382 24.669455,0 44.673825,20.00436 44.673825,44.67382 0,24.67592 -20.00437,44.68029 -44.673825,44.68029 M 46.302081,0 C 20.728025,0 -10e-6,20.72804 -10e-6,46.29563 c 0,25.57406 20.728035,46.30209 46.302091,46.30209 25.574045,0 46.302075,-20.72803 46.302075,-46.30209 C 92.604156,20.72804 71.876126,0 46.302081,0"
     style="fill:#000000;fill-opacity:1;fill-rule:nonzero;stroke:none;stroke-width:1.65411" />
  <path
     inkscape:connector-curvature="0"
     id="path213"
     d="m 46.302091,86.91173 c -22.433833,0 -40.616097,-18.18227 -40.616097,-40.60963 0,-22.43384 18.182264,-40.6161 40.616097,-40.6161 22.427365,0 40.616085,18.18226 40.616085,40.6161 0,22.42736 -18.18872,40.60963 -40.616085,40.60963 m 0,-85.28992 c -24.675926,0 -44.680288,20.00436 -44.680288,44.68029 0,24.66945 20.004362,44.67382 44.680288,44.67382 24.669455,0 44.673825,-20.00437 44.673825,-44.67382 0,-24.67593 -20.00437,-44.68029 -44.673825,-44.68029"
     style="fill:#ffffff;fill-opacity:1;fill-rule:nonzero;stroke:none;stroke-width:1.65411" />
  <path
     inkscape:connector-curvature="0"
     id="path215"
     d="m 46.302091,5.686 c -22.433833,0 -40.616097,18.18226 -40.616097,40.60963 0,22.43383 18.182264,40.6161 40.616097,40.6161 22.427365,0 40.616085,-18.18227 40.616085,-40.6161 0,-22.42737 -18.18872,-40.60963 -40.616085,-40.60963"
     style="fill:#fb4f93;fill-opacity:1;fill-rule:nonzero;stroke:none;stroke-width:1.65411" />
  <path
     inkscape:connector-curvature="0"
     id="path217"
     d="M 37.249723,29.53487 V 62.0355 H 31.324661 V 43.45263 c 0,-3.08206 0,-3.99311 -2.649153,-3.99311 h -5.291853 v -3.70883 h 0.62029 c 3.036825,-0.0516 7.126871,-0.0969 8.432061,-6.21582 z m 0,0"
     style="fill:#ffffff;fill-opacity:1;fill-rule:nonzero;stroke:none;stroke-width:1.65411" />
  <path
     inkscape:connector-curvature="0"
     id="path219"
     d="M 62.468396,34.88488 H 49.804135 l -1.104894,7.1721 c 1.440893,-1.44735 3.754065,-2.41009 6.261065,-2.41009 5.77645,0 9.86648,4.29035 9.86648,10.8357 0,6.69397 -4.38079,11.99228 -12.08272,11.99228 -2.164568,0 -4.283894,-0.38768 -6.164151,-1.35042 -4.529409,-2.41008 -4.865392,-6.59704 -5.007546,-8.18654 l 6.739198,-0.4846 c 0.148539,3.3276 2.21624,4.82017 4.671559,4.82017 1.11135,0 2.06764,-0.23907 2.843,-0.7689 1.44088,-0.96921 2.45531,-3.23069 2.45531,-5.78291 0,-4.04482 -2.507,-6.11245 -5.39524,-6.11245 -2.216235,0 -4.090025,1.00798 -4.865388,3.03037 l -5.434007,-0.33598 2.306702,-17.86565 h 18.059493 z m 0,0"
     style="fill:#ffffff;fill-opacity:1;fill-rule:nonzero;stroke:none;stroke-width:1.65411" />
</svg>
