<?xml version="1.0" encoding="UTF-8" standalone="no"?>
<svg
   width="92.604164mm"
   height="92.604149mm"
   viewBox="0 0 92.604164 92.604149"
   version="1.1"
   id="svg5"
   sodipodi:docname="BBFC_18_2019.svg"
   inkscape:version="1.4 (e7c3feb100, 2024-10-09)"
   xmlns:inkscape="http://www.inkscape.org/namespaces/inkscape"
   xmlns:sodipodi="http://sodipodi.sourceforge.net/DTD/sodipodi-0.dtd"
   xmlns="http://www.w3.org/2000/svg"
   xmlns:svg="http://www.w3.org/2000/svg">
  <sodipodi:namedview
     id="namedview5"
     pagecolor="#ffffff"
     bordercolor="#000000"
     borderopacity="0.25"
     inkscape:showpageshadow="2"
     inkscape:pageopacity="0.0"
     inkscape:pagecheckerboard="0"
     inkscape:deskcolor="#d1d1d1"
     inkscape:document-units="mm"
     inkscape:zoom="1.3400003"
     inkscape:cx="175.3731"
     inkscape:cy="175.74623"
     inkscape:window-width="1280"
     inkscape:window-height="730"
     inkscape:window-x="0"
     inkscape:window-y="0"
     inkscape:window-maximized="1"
     inkscape:current-layer="svg5" />
  <defs
     id="defs1" />
  <path
     d="m 46.298699,90.97353 c -24.675814,0 -44.6736184,-20.004272 -44.6736184,-44.673635 0,-24.675798 19.9978044,-44.68007 44.6736184,-44.68007 24.675814,0 44.680086,20.004272 44.680086,44.68007 0,24.669363 -20.004272,44.673635 -44.680086,44.673635 m 0,-90.9755004 c -25.573941,0 -46.30188133,20.7279404 -46.30188133,46.3018654 0,25.567489 20.72794033,46.301881 46.30188133,46.301881 25.573941,0 46.301882,-20.734392 46.301882,-46.301881 0,-25.573925 -20.727941,-46.3018654 -46.301882,-46.3018654"
     id="path2"
     style="fill:#000000;fill-opacity:1;stroke-width:1.6541" />
  <path
     fill="#ffffff"
     d="m 46.298689,86.915807 c -22.433731,0 -40.6159126,-18.188632 -40.6159126,-40.615912 0,-22.433732 18.1821816,-40.6158966 40.6159126,-40.6158966 22.433731,0 40.615913,18.1821646 40.615913,40.6158966 0,22.42728 -18.182182,40.615912 -40.615913,40.615912 m 0,-85.295982 c -24.675814,0 -44.6736184,20.004272 -44.6736184,44.68007 0,24.675814 19.9978044,44.673635 44.6736184,44.673635 24.675814,0 44.680086,-19.997821 44.680086,-44.673635 0,-24.675798 -20.004272,-44.68007 -44.680086,-44.68007"
     id="path3"
     style="stroke-width:1.6541" />
  <path
     fill="#d70723"
     d="m 46.298689,5.6839984 c -22.433731,0 -40.6159126,18.1821646 -40.6159126,40.6158966 0,22.42728 18.1821816,40.615912 40.6159126,40.615912 22.433731,0 40.615913,-18.188632 40.615913,-40.615912 0,-22.433732 -18.182182,-40.6158966 -40.615913,-40.6158966"
     id="path4"
     style="fill:#dc0a0a;fill-opacity:1;stroke-width:1.6541" />
  <path
     fill="#ffffff"
     d="M 37.246379,29.539214 V 62.039698 H 31.327794 V 43.450459 c 0,-3.082051 0,-3.993096 -2.655608,-3.993096 h -5.29183 v -3.708807 h 0.626755 c 3.030361,-0.04532 7.126839,-0.09693 8.425572,-6.209342 z m 28.158455,23.1574 c 0,5.925035 -5.104436,9.775995 -12.179601,9.775995 -7.417597,0 -11.992225,-4.141717 -11.992225,-9.775995 0,-5.104454 3.708806,-6.887772 5.34352,-7.656664 -3.463272,-1.63473 -4.18694,-5.149693 -4.18694,-7.075165 0,-5.052762 4.18694,-8.955396 11.171642,-8.955396 6.693928,0 11.074713,3.611876 11.074713,9.239703 0,2.842984 -1.15658,5.298281 -4.238632,6.790858 3.75403,1.880232 5.007523,4.671526 5.007523,7.656664 M 48.023866,52.50277 c 0,2.74607 1.925471,4.626319 5.485674,4.626319 3.133742,0 5.446901,-1.641182 5.446901,-4.671543 0,-0.581515 -0.09693,-4.626302 -5.446901,-4.626302 -5.149677,0 -5.485674,3.663567 -5.485674,4.671526 m 0.529825,-13.814316 c 0,1.440887 0.626755,4.283871 5.007539,4.283871 3.80572,0 4.768456,-2.455313 4.768456,-4.283871 0,-3.708806 -2.939898,-4.380784 -4.820146,-4.380784 -4.090027,-0.05161 -4.955849,2.597466 -4.955849,4.380784"
     id="path5"
     style="stroke-width:1.6541" />
</svg>
